<mxfile host="app.diagrams.net" modified="2023-08-22T07:18:20.480Z" agent="Mozilla/5.0 (X11; Ubuntu; Linux x86_64; rv:109.0) Gecko/20100101 Firefox/115.0" etag="_FdHbWgBz7LFBEcurqOE" version="21.6.8" type="github">
  <diagram name="Page-1" id="_K5i0X5pg0vqxnendjRb">
    <mxGraphModel dx="1058" dy="615" grid="1" gridSize="10" guides="1" tooltips="1" connect="1" arrows="1" fold="1" page="1" pageScale="1" pageWidth="850" pageHeight="1100" math="0" shadow="0">
      <root>
        <mxCell id="0" />
        <mxCell id="1" parent="0" />
        <mxCell id="81iAOAUjp4WsCBe83WdG-2" value="&lt;div&gt;User&lt;br&gt;&lt;/div&gt;&lt;div&gt;(player2)&lt;br&gt;&lt;/div&gt;" style="shape=umlActor;verticalLabelPosition=bottom;verticalAlign=top;html=1;outlineConnect=0;" vertex="1" parent="1">
          <mxGeometry x="600" y="200" width="80" height="160" as="geometry" />
        </mxCell>
        <mxCell id="81iAOAUjp4WsCBe83WdG-7" value="" style="rounded=0;whiteSpace=wrap;html=1;direction=south;" vertex="1" parent="1">
          <mxGeometry x="155" y="40" width="400" height="560" as="geometry" />
        </mxCell>
        <mxCell id="81iAOAUjp4WsCBe83WdG-14" value="&lt;div&gt;Komputer&lt;/div&gt;&lt;div&gt;(player1)&lt;br&gt;&lt;/div&gt;" style="shape=umlActor;verticalLabelPosition=bottom;verticalAlign=top;html=1;outlineConnect=0;" vertex="1" parent="1">
          <mxGeometry x="40" y="200" width="80" height="160" as="geometry" />
        </mxCell>
        <mxCell id="81iAOAUjp4WsCBe83WdG-15" value="" style="ellipse;whiteSpace=wrap;html=1;" vertex="1" parent="1">
          <mxGeometry x="260" y="90" width="190" height="110" as="geometry" />
        </mxCell>
        <mxCell id="81iAOAUjp4WsCBe83WdG-18" value="GAME TEBAK ANGAKA" style="text;html=1;strokeColor=none;fillColor=none;align=center;verticalAlign=middle;whiteSpace=wrap;rounded=0;" vertex="1" parent="1">
          <mxGeometry x="255" y="50" width="210" height="30" as="geometry" />
        </mxCell>
        <mxCell id="81iAOAUjp4WsCBe83WdG-27" value="" style="endArrow=none;html=1;rounded=0;entryX=0.993;entryY=0.573;entryDx=0;entryDy=0;entryPerimeter=0;" edge="1" parent="1">
          <mxGeometry width="50" height="50" relative="1" as="geometry">
            <mxPoint x="600" y="320" as="sourcePoint" />
            <mxPoint x="448.74" y="463.03" as="targetPoint" />
            <Array as="points">
              <mxPoint x="540" y="463" />
            </Array>
          </mxGeometry>
        </mxCell>
        <mxCell id="81iAOAUjp4WsCBe83WdG-28" value="" style="endArrow=none;html=1;rounded=0;exitX=1;exitY=0.3333333333333333;exitDx=0;exitDy=0;exitPerimeter=0;entryX=0;entryY=0.5;entryDx=0;entryDy=0;" edge="1" parent="1" source="81iAOAUjp4WsCBe83WdG-14" target="81iAOAUjp4WsCBe83WdG-15">
          <mxGeometry width="50" height="50" relative="1" as="geometry">
            <mxPoint x="400" y="340" as="sourcePoint" />
            <mxPoint x="450" y="290" as="targetPoint" />
            <Array as="points">
              <mxPoint x="120" y="145" />
            </Array>
          </mxGeometry>
        </mxCell>
        <mxCell id="81iAOAUjp4WsCBe83WdG-35" value="Tebak Angka" style="ellipse;whiteSpace=wrap;html=1;" vertex="1" parent="1">
          <mxGeometry x="260" y="410" width="190" height="110" as="geometry" />
        </mxCell>
        <mxCell id="81iAOAUjp4WsCBe83WdG-36" value="Random Angka" style="text;strokeColor=none;align=center;fillColor=none;html=1;verticalAlign=middle;whiteSpace=wrap;rounded=0;" vertex="1" parent="1">
          <mxGeometry x="312.5" y="130" width="85" height="30" as="geometry" />
        </mxCell>
      </root>
    </mxGraphModel>
  </diagram>
</mxfile>
